<?xml version="1.0" standalone="no"?>
<!DOCTYPE svg PUBLIC "-//W3C//DTD SVG 20010904//EN"
 "http://www.w3.org/TR/2001/REC-SVG-20010904/DTD/svg10.dtd">
<svg version="1.0" xmlns="http://www.w3.org/2000/svg"
 width="700.000000pt" height="700.000000pt" viewBox="0 0 700.000000 700.000000"
 preserveAspectRatio="xMidYMid meet">
<metadata>
Created by potrace 1.11, written by Peter Selinger 2001-2013
</metadata>
<g transform="translate(0.000000,700.000000) scale(0.100000,-0.100000)"
fill="#000000" stroke="none">
<path d="M2577 6444 c-1 -1 -40 -5 -87 -8 -47 -4 -128 -13 -180 -22 -52 -8
-111 -17 -130 -20 -19 -3 -43 -7 -52 -10 -10 -3 -30 -7 -45 -10 -121 -22 -366
-99 -512 -161 -322 -137 -548 -288 -771 -512 -141 -142 -233 -267 -315 -422
-49 -95 -131 -299 -120 -299 2 0 -2 -18 -10 -41 -8 -22 -17 -62 -21 -87 -3
-26 -9 -63 -13 -82 -12 -61 -4 -281 13 -355 33 -138 106 -298 214 -465 77
-120 260 -371 366 -500 6 -9 32 -42 56 -75 25 -33 47 -62 50 -65 12 -11 149
-210 189 -274 79 -126 157 -312 167 -396 5 -45 13 -134 18 -195 7 -80 38 -179
77 -240 17 -27 72 -91 123 -142 l91 -92 0 -78 c0 -43 4 -84 9 -91 4 -7 41 -29
82 -48 130 -62 131 -92 6 -156 -84 -43 -87 -46 -87 -79 0 -32 3 -36 74 -70
136 -65 139 -103 11 -161 -127 -58 -126 -91 4 -156 47 -24 86 -47 87 -50 0 -4
2 -15 4 -25 4 -21 -15 -41 -82 -83 -55 -36 -71 -62 -53 -91 7 -10 57 -54 112
-98 55 -44 106 -84 112 -90 6 -5 34 -28 61 -50 75 -59 123 -105 161 -156 l35
-45 537 -1 537 -1 47 59 c26 32 78 84 116 116 78 66 75 63 197 158 104 80 108
84 122 109 18 32 4 53 -62 96 -62 41 -82 70 -66 98 5 8 44 33 87 56 84 44 113
78 91 105 -7 8 -49 31 -93 51 -66 31 -82 43 -86 63 -7 38 3 48 93 92 130 63
127 87 -21 162 -42 21 -75 45 -76 53 -1 38 21 60 92 90 41 18 79 39 85 47 7 8
13 49 13 97 l1 83 78 73 c94 88 153 171 182 259 22 64 27 99 41 260 8 96 26
166 71 271 78 181 132 260 582 850 214 281 340 513 396 728 23 91 23 316 0
428 -39 191 -109 374 -205 529 -155 253 -412 498 -706 674 -273 164 -663 304
-989 355 -127 20 -153 23 -259 32 -80 6 -444 13 -449 8z m463 -278 c41 -4 86
-9 100 -11 58 -8 116 -18 135 -21 10 -2 37 -6 60 -9 53 -8 295 -71 370 -97
616 -212 1056 -604 1199 -1068 41 -133 54 -222 52 -359 -2 -143 -23 -230 -86
-367 -76 -165 -130 -250 -401 -629 -114 -159 -242 -344 -284 -410 -114 -178
-214 -396 -229 -502 -4 -21 -8 -49 -11 -62 -2 -13 -7 -63 -10 -110 -7 -98 -28
-187 -56 -244 -23 -44 -115 -136 -139 -138 -8 -1 -454 -2 -990 -3 l-975 -1
-51 42 c-87 73 -127 170 -139 338 -12 166 -26 225 -92 384 -71 173 -140 282
-495 778 -185 258 -254 366 -323 502 -118 235 -142 412 -90 670 19 97 66 224
123 331 201 377 609 686 1132 857 96 31 330 89 395 97 28 3 76 10 107 15 31 6
94 13 140 17 46 3 84 7 85 8 6 5 404 -2 473 -8z"/>
<path d="M2162 5819 c-142 -36 -248 -115 -294 -216 -10 -24 -22 -43 -26 -44
-4 0 -14 -2 -22 -3 -8 -2 -36 -6 -62 -9 -74 -9 -186 -45 -272 -88 -218 -108
-349 -276 -370 -471 -5 -52 -10 -62 -58 -111 -63 -63 -69 -71 -90 -117 -76
-161 -31 -358 113 -498 24 -23 72 -61 105 -83 l62 -40 -19 -50 c-91 -238 77
-501 367 -575 l71 -18 17 -48 c39 -110 165 -217 311 -265 65 -21 102 -27 198
-29 128 -2 205 12 308 60 44 20 58 22 88 14 52 -15 159 -4 216 21 61 27 97 60
120 112 10 21 21 39 24 40 26 3 112 17 156 24 22 4 146 24 275 45 l235 38 38
-39 c92 -94 268 -137 410 -98 245 66 325 294 155 443 l-49 43 87 159 c48 87
89 161 91 163 2 3 27 5 56 6 126 4 219 39 291 112 124 123 86 295 -86 388 -26
14 -56 28 -65 30 -10 2 -36 7 -58 12 -22 5 -65 8 -95 7 l-56 -2 -43 71 c-25
40 -59 95 -76 122 -115 182 -255 411 -255 417 0 3 13 20 30 38 98 105 29 261
-136 306 -120 32 -260 -4 -325 -86 l-30 -37 -283 -1 -284 0 -41 45 c-48 50
-103 77 -177 87 -32 5 -61 17 -80 33 -108 93 -313 133 -472 92z m272 -147 l49
-22 -28 -28 c-45 -44 -57 -69 -61 -121 -5 -72 38 -135 121 -177 l61 -30 -2
-166 c-1 -149 -3 -169 -23 -211 -50 -104 -164 -166 -328 -182 -61 -6 -92 -22
-99 -52 -30 -119 221 -111 447 14 4 2 4 -7 2 -21 -4 -18 -15 -28 -40 -37 -79
-26 -152 -132 -139 -202 11 -64 64 -124 136 -156 l45 -20 0 -318 0 -318 -50
-23 c-28 -13 -64 -39 -82 -58 -49 -54 -54 -78 -41 -193 3 -22 -3 -26 -57 -43
-231 -70 -480 51 -499 241 -8 86 67 175 173 205 81 23 97 21 110 -13 12 -27
68 -93 103 -120 10 -7 33 -17 53 -21 28 -6 41 -4 68 14 45 30 46 62 3 108 -53
57 -67 82 -68 130 -1 53 18 91 66 137 20 19 36 44 36 56 0 23 -33 65 -53 66
-7 0 -19 2 -28 4 -52 10 -160 -87 -190 -170 -7 -19 -15 -36 -19 -36 -3 -1 -18
-3 -35 -4 -151 -9 -318 -107 -373 -219 -21 -41 -26 -45 -50 -40 -80 19 -185
102 -224 178 -28 54 -36 167 -15 217 l15 36 63 -13 c92 -20 201 -22 233 -4 27
14 42 49 33 74 -11 28 -53 46 -123 51 -96 8 -119 13 -197 40 -195 67 -321 224
-312 386 3 69 41 146 91 187 93 77 275 90 417 29 l38 -16 -35 -51 c-38 -55
-56 -106 -56 -157 0 -43 39 -73 95 -73 51 0 80 27 88 83 8 55 43 105 96 138
50 32 88 44 170 53 74 9 106 38 94 85 -13 52 -106 65 -236 32 l-76 -20 -44 25
c-114 63 -280 93 -415 73 l-43 -6 6 31 c11 56 56 135 106 190 181 198 565 274
724 143 41 -33 74 -96 75 -139 0 -61 99 -90 155 -46 25 19 27 26 22 73 -12
127 -111 232 -269 285 -75 25 -77 26 -65 49 51 102 251 150 381 93z m286 -127
c17 -9 30 -19 31 -23 0 -4 2 -15 4 -25 2 -10 -6 -29 -18 -42 -55 -61 -183 -18
-156 53 20 52 80 67 139 37z m1110 -14 c34 -33 31 -63 -8 -89 -63 -41 -168 5
-146 65 20 58 107 72 154 24z m-328 -111 c2 -3 18 -22 37 -42 l34 -37 -37 -61
c-20 -34 -36 -64 -36 -68 -1 -4 -11 -20 -24 -36 -21 -25 -30 -28 -81 -28 -32
0 -81 -7 -109 -14 -28 -8 -53 -14 -56 -14 -3 0 -23 16 -45 35 -22 20 -93 79
-157 133 -64 53 -117 102 -117 109 -1 7 5 16 13 20 15 8 573 11 578 3z m-571
-256 l159 -135 -26 -45 c-31 -54 -39 -132 -19 -181 16 -38 28 -28 -127 -116
-90 -51 -99 -55 -128 -44 -16 6 -30 18 -31 27 -1 20 -1 579 0 608 1 12 4 22 7
22 3 0 77 -61 165 -136z m980 -73 c66 -108 126 -205 132 -215 7 -11 35 -56 63
-100 28 -45 54 -86 57 -93 5 -7 -1 -17 -13 -23 -17 -9 -29 -8 -53 3 -18 8
-102 43 -187 77 l-155 63 3 59 c5 74 -22 132 -85 187 -25 22 -43 44 -41 48 1
5 27 49 56 99 78 134 75 135 223 -105z m-438 -94 c154 -65 134 -218 -33 -256
-113 -25 -236 53 -223 143 8 55 46 91 123 119 29 10 101 7 133 -6z m388 -394
c103 -42 186 -80 183 -84 -2 -4 -5 -25 -6 -47 l-1 -41 -76 -21 c-42 -12 -85
-23 -96 -25 -11 -3 -72 -20 -135 -38 l-115 -33 -44 27 c-87 56 -228 62 -322
15 l-46 -23 -130 49 -131 50 -5 41 c-3 23 -2 46 2 50 5 5 58 37 119 71 74 42
115 60 124 54 31 -20 147 -49 198 -50 98 -2 196 24 249 64 13 10 28 18 34 18
6 0 95 -35 198 -77z m620 -22 c41 -13 83 -54 98 -94 8 -21 7 -37 -5 -66 -26
-67 -99 -103 -191 -96 -89 7 -151 54 -159 122 -13 105 126 177 257 134z
m-1777 -61 c39 -14 59 -52 45 -83 -27 -60 -140 -62 -167 -3 -16 36 9 78 53 89
33 8 42 7 69 -3z m283 -260 c136 -51 135 -51 140 -96 2 -21 13 -52 23 -70 l20
-31 -81 -84 c-155 -161 -329 -338 -330 -336 -1 3 -1 576 0 605 1 12 7 22 14
22 7 0 28 9 47 19 19 11 42 18 50 15 8 -3 61 -23 117 -44z m1155 7 l38 -32
-85 -155 c-47 -85 -89 -158 -94 -163 -5 -5 -33 -10 -63 -12 -29 -1 -73 -4 -98
-8 l-45 -5 -84 88 c-82 87 -84 90 -68 113 9 14 20 40 24 58 l9 34 205 57 c112
31 209 57 214 57 6 0 27 -14 47 -32z m-670 -47 c24 -29 23 -44 -4 -74 -59 -65
-189 -14 -156 60 15 31 46 44 98 40 30 -3 50 -11 62 -26z m94 -321 l93 -92
-23 -31 c-23 -30 -57 -91 -56 -101 0 -3 0 -11 0 -19 0 -12 -143 -40 -365 -71
-22 -3 -62 -10 -90 -15 -27 -5 -68 -12 -90 -15 -22 -4 -61 -10 -87 -14 -26 -4
-50 -6 -52 -4 -3 3 55 66 128 141 74 76 169 174 212 219 l78 83 68 -2 c37 -1
71 1 74 5 12 11 13 10 110 -84z m495 -163 c96 -64 85 -166 -26 -223 -39 -21
-130 -20 -179 1 -39 16 -85 60 -87 84 -5 47 -4 60 8 84 15 32 64 68 107 79 54
14 135 3 177 -25z m-1333 -263 c48 -42 28 -97 -40 -112 -87 -20 -152 67 -85
114 30 21 100 19 125 -2z"/>
</g>
</svg>
