<?xml version="1.0" encoding="UTF-8" standalone="no"?>
<svg
   xmlns:dc="http://purl.org/dc/elements/1.1/"
   xmlns:cc="http://creativecommons.org/ns#"
   xmlns:rdf="http://www.w3.org/1999/02/22-rdf-syntax-ns#"
   xmlns:svg="http://www.w3.org/2000/svg"
   xmlns="http://www.w3.org/2000/svg"
   xmlns:xlink="http://www.w3.org/1999/xlink"
   xmlns:sodipodi="http://sodipodi.sourceforge.net/DTD/sodipodi-0.dtd"
   xmlns:inkscape="http://www.inkscape.org/namespaces/inkscape"
   inkscape:version="1.0 (4035a4fb49, 2020-05-01)"
   sodipodi:docname="logo3.svg"
   id="svg26"
   height="640"
   width="640"
   viewBox="0 0 640 640"
   preserveAspectRatio="xMidYMid meet"
   version="1.1">
  <metadata
     id="metadata30">
    <rdf:RDF>
      <cc:Work
         rdf:about="">
        <dc:format>image/svg+xml</dc:format>
        <dc:type
           rdf:resource="http://purl.org/dc/dcmitype/StillImage" />
        <dc:title />
      </cc:Work>
    </rdf:RDF>
  </metadata>
  <sodipodi:namedview
     inkscape:current-layer="g22"
     inkscape:window-maximized="1"
     inkscape:window-y="-8"
     inkscape:window-x="1912"
     inkscape:cy="320"
     inkscape:cx="440.39505"
     inkscape:zoom="1.328125"
     showgrid="false"
     id="namedview28"
     inkscape:window-height="1017"
     inkscape:window-width="1920"
     inkscape:pageshadow="2"
     inkscape:pageopacity="0"
     guidetolerance="10"
     gridtolerance="10"
     objecttolerance="10"
     borderopacity="1"
     bordercolor="#666666"
     pagecolor="#ffffff"
     inkscape:document-rotation="0" />
  <defs
     id="defs4">
    <path
       id="bQmIBc4Bv"
       d="M282.13 359.6C260.44 359.6 242.46 343.78 239.26 323.12C218.34 319.55 202.6 299.6 202.6 275.84C202.6 269.04 203.89 262.43 206.34 256.37C203.32 254.33 200.48 252 197.85 249.39C186.86 238.47 180.91 223.89 180.91 208.76C180.91 195.33 185.56 184.5 195.44 173.85C195.39 173.52 195.44 165.66 196.98 158.5C203.08 131.76 225.85 111.31 253.87 108.52C257.09 91.96 271.75 79.46 289.36 79.46C301.18 79.46 311.68 85.1 318.28 93.82C327.72 93.83 335.76 99.83 338.73 108.19C343.32 108.19 379.99 108.19 384.58 108.19C387.56 99.82 395.59 93.83 405.03 93.83C417.01 93.83 426.72 103.48 426.72 115.38C426.72 121.4 424.24 126.84 420.23 130.75C423.25 137.16 447.34 188.46 450.35 194.87C452.07 194.56 453.84 194.39 455.64 194.39C471.61 194.39 484.56 207.26 484.56 223.12C484.56 238.99 471.61 251.86 455.64 251.86C454.25 251.86 452.88 251.76 451.55 251.57C450.08 255.05 438.4 282.92 436.94 286.4C443.91 291.65 448.41 299.96 448.41 309.32C448.41 325.19 435.47 338.05 419.49 338.05C408.17 338.05 398.37 331.59 393.62 322.18C388.24 323.32 345.17 332.49 339.79 333.64C338.42 344.23 329.31 352.42 318.28 352.42C314.95 352.42 311.8 351.68 308.99 350.35C301.6 356.14 292.27 359.6 282.13 359.6ZM289.36 93.83C279.57 93.83 271.3 100.27 268.6 109.11C284.63 112.79 296.59 127.06 296.59 144.11C296.59 148.08 293.35 151.29 289.36 151.29C285.37 151.29 282.13 148.08 282.13 144.11C282.13 132.21 272.42 122.56 260.44 122.56C234.3 122.56 212.79 142.25 210.11 167.52C223.98 163.98 239.09 167.42 250.1 177.36C255.3 174.48 261.29 172.84 267.67 172.84C271.66 172.84 274.9 176.06 274.9 180.03C274.9 183.99 271.66 187.21 267.67 187.21C255.69 187.21 245.98 196.86 245.98 208.76C245.98 212.72 242.74 215.94 238.75 215.94C234.76 215.94 231.52 212.72 231.52 208.76C231.52 200.51 234.32 192.91 239.02 186.85C229.74 179.44 216.73 178.44 206.4 184.42C205.84 184.74 203.22 186.86 202.57 187.72C197.54 194.32 195.37 200.81 195.37 208.76C195.37 220.12 199.83 231.04 208.08 239.23C212.16 243.29 216.93 246.44 222.14 248.59C227.4 250.75 233.05 251.86 238.75 251.86C242.74 251.86 245.98 255.07 245.98 259.04C245.98 263.01 242.74 266.22 238.75 266.22C232.12 266.22 225.55 265.1 219.31 262.89C217.84 266.94 217.06 271.32 217.06 275.84C217.06 291.95 226.85 305.17 239.65 308.51C243.25 292.77 257.25 280.97 274.09 280.6C275.23 273.55 278.61 266.74 284.25 261.14C287.07 258.34 291.65 258.34 294.47 261.14C297.29 263.95 297.29 268.5 294.47 271.3C286 279.72 286 292.24 294.47 300.65C297.29 303.46 297.29 308 294.47 310.81C291.65 313.61 287.07 313.61 284.25 310.81C279.58 306.17 276.45 300.7 274.87 294.96C262.91 294.97 253.21 304.61 253.21 316.5C253.21 332.37 266.16 345.24 282.13 345.24C288.28 345.24 293.98 343.33 298.66 340.08C297.33 337.29 296.59 334.17 296.59 330.87C296.59 321.49 302.62 313.51 311.05 310.55C311.05 303.84 311.05 250.16 311.05 243.45C302.62 240.49 296.59 232.51 296.59 223.12C296.59 213.74 302.62 205.76 311.05 202.8C311.05 202.3 311.05 198.29 311.05 197.78C303.37 204.61 293.24 208.76 282.13 208.76C278.14 208.76 274.9 205.54 274.9 201.57C274.9 197.61 278.14 194.39 282.13 194.39C298.1 194.39 311.05 181.53 311.05 165.66C311.05 162.66 311.05 138.7 311.05 135.7C302.62 132.74 296.59 124.76 296.59 115.38C296.59 109 299.38 103.26 303.82 99.32C299.98 95.9 294.91 93.83 289.36 93.83ZM325.51 202.8C327.21 203.4 328.82 204.2 330.3 205.19C332.21 203.76 347.46 192.4 349.37 190.98C347.97 187.6 347.2 183.9 347.2 180.03C347.2 174.09 349.01 168.58 352.11 164C349.54 161.14 329.03 138.21 326.46 135.34C326.15 135.47 325.83 135.59 325.51 135.7C325.51 149.12 325.51 196.09 325.51 202.8ZM325.51 308.82C345.18 282.01 356.11 267.12 358.29 264.14C355.86 260.66 354.43 256.42 354.43 251.86C354.43 251 354.48 250.15 354.58 249.32C352.45 248.25 335.42 239.74 333.29 238.67C331.09 240.77 328.44 242.42 325.51 243.45C325.51 252.16 325.51 273.96 325.51 308.82ZM337.27 125.79C339.83 128.66 360.35 151.59 362.91 154.46C366.87 152.43 371.36 151.29 376.12 151.29C377.74 151.29 379.33 151.43 380.88 151.68C381.81 149.62 389.2 133.09 390.12 131.03C387.65 128.7 385.74 125.81 384.58 122.56C381.52 122.56 366.24 122.56 338.73 122.56C338.14 124.03 337.65 125.11 337.27 125.79ZM390.6 308.13C390.86 301.82 393.17 296.03 396.88 291.41C395.44 289.51 383.96 274.35 382.52 272.45C380.5 273.07 378.35 273.41 376.12 273.41C374 273.41 371.95 273.1 370.02 272.54C366.64 277.16 339.55 314.07 336.17 318.68C336.37 318.98 336.57 319.28 336.76 319.59C347.53 317.3 385.22 309.27 390.6 308.13ZM339.97 223.12C339.97 224.04 339.91 224.95 339.8 225.84C341.91 226.9 358.85 235.37 360.97 236.43C364.88 232.64 370.22 230.31 376.12 230.31C382.91 230.31 388.98 233.41 392.95 238.27C396.34 237.04 423.47 227.17 426.86 225.94C426.77 225.01 426.72 224.07 426.72 223.12C426.72 220.7 427.03 218.35 427.59 216.1C424.56 214.46 400.27 201.3 397.24 199.65C391.96 205.26 384.45 208.76 376.12 208.76C369.28 208.76 363 206.4 358.05 202.46C356.78 203.41 350.42 208.15 338.98 216.68C339.64 219.48 339.97 221.63 339.97 223.12ZM438.2 246.04C435.74 244.19 433.59 241.96 431.83 239.43C429.56 240.26 418.22 244.38 397.8 251.81C397.8 251.84 397.8 251.85 397.8 251.86C397.8 256.31 396.45 260.44 394.12 263.87C395.55 265.76 407 280.88 408.43 282.77C411.84 281.36 415.58 280.59 419.49 280.59C420.88 280.59 422.25 280.69 423.59 280.88C426.51 273.91 436.74 249.53 438.2 246.04ZM437.25 200.95C434.24 194.54 410.14 143.24 407.13 136.83C406.44 136.89 405.74 136.93 405.03 136.93C404.46 136.93 403.9 136.9 403.34 136.86C402.41 138.93 395.02 155.45 394.09 157.52C400.76 162.78 405.03 170.91 405.03 180.03C405.03 182.45 404.73 184.8 404.17 187.04C406.19 188.14 416.31 193.63 434.52 203.5C435.7 202.33 436.61 201.48 437.25 200.95ZM390.57 180.03C390.57 172.09 384.1 165.66 376.12 165.66C368.13 165.66 361.66 172.09 361.66 180.03C361.66 187.96 368.13 194.39 376.12 194.39C384.1 194.39 390.57 187.96 390.57 180.03ZM412.26 115.38C412.26 111.41 409.03 108.19 405.03 108.19C401.04 108.19 397.8 111.41 397.8 115.38C397.8 119.34 401.04 122.56 405.03 122.56C409.03 122.56 412.26 119.34 412.26 115.38ZM470.1 223.12C470.1 215.19 463.63 208.76 455.64 208.76C447.66 208.76 441.18 215.19 441.18 223.12C441.18 231.06 447.66 237.49 455.64 237.49C463.63 237.49 470.1 231.06 470.1 223.12ZM383.35 251.86C383.35 247.89 380.11 244.67 376.12 244.67C372.12 244.67 368.89 247.89 368.89 251.86C368.89 255.82 372.12 259.04 376.12 259.04C380.11 259.04 383.35 255.82 383.35 251.86ZM433.95 309.32C433.95 301.39 427.48 294.96 419.49 294.96C411.51 294.96 405.03 301.39 405.03 309.32C405.03 317.26 411.51 323.69 419.49 323.69C427.48 323.69 433.95 317.26 433.95 309.32ZM325.51 223.12C325.51 219.16 322.27 215.94 318.28 215.94C314.28 215.94 311.05 219.16 311.05 223.12C311.05 227.09 314.28 230.31 318.28 230.31C322.27 230.31 325.51 227.09 325.51 223.12ZM325.51 330.87C325.51 326.9 322.27 323.69 318.28 323.69C314.28 323.69 311.05 326.9 311.05 330.87C311.05 334.84 314.28 338.05 318.28 338.05C322.27 338.05 325.51 334.84 325.51 330.87ZM325.51 115.38C325.51 111.41 322.27 108.19 318.28 108.19C314.28 108.19 311.05 111.41 311.05 115.38C311.05 119.34 314.28 122.56 318.28 122.56C322.27 122.56 325.51 119.34 325.51 115.38Z" />
    <path
       id="ayQdYmlIH"
       d="M247.03 32.58C204.53 51.31 169.53 85.54 149.93 127.59C140.77 147.3 135.39 166.96 132.88 189.7C131.99 198.16 132.08 217.42 133.12 223.93C136.33 244.07 143.74 264.12 157.44 289.5C162.54 299.04 167.12 306.96 180.77 330.28C198.34 360.26 205.99 375.76 211.33 392.19C215.48 404.81 216.76 412.53 217.28 427.35C218.03 448.67 222.66 460.7 236.31 476.64C236.6 476.98 238.05 478.69 240.66 481.77L240.66 490.63L240.66 499.43C241.51 500.43 241.98 500.98 242.07 501.09C242.83 502.02 245.61 503.93 248.21 505.34C254.07 508.52 255.77 510.38 255.77 513.51C255.77 515.47 255.53 516 253.97 517.52C252.98 518.5 250.24 520.31 247.88 521.63C242.59 524.46 240.66 526.57 240.66 529.4C240.66 532.24 242.21 534.15 246.42 536.4C253.83 540.41 255.77 542.26 255.77 545.44C255.77 548.72 254.07 550.48 247.36 553.95C245.52 554.93 243.25 556.49 242.31 557.42C240.94 558.89 240.66 559.53 240.66 561.24C240.66 563.24 241.51 565.1 243.02 566.32C243.39 566.67 245.76 568.08 248.21 569.5C250.67 570.87 253.41 572.78 254.26 573.66C255.53 575.08 255.77 575.71 255.77 577.72C255.77 580.65 254.68 582.12 249.72 585.88C247.83 587.35 245.85 589.26 245.33 590.09C244.06 592.29 244.2 594.78 245.66 597.08C246.32 598.11 252.65 604.9 259.74 612.19C272.68 625.49 277.26 631.07 281.27 638.4C281.38 638.61 281.95 639.65 282.97 641.53L325.57 641.68L368.22 641.78C368.7 640.87 368.97 640.36 369.02 640.26C373.6 631.51 379.88 623.78 393.34 610.33C399.2 604.46 404.68 598.65 405.43 597.42C408.17 593.12 407.23 590.19 401.61 585.88C396.65 582.12 395.56 580.65 395.56 577.72C395.56 574.54 397.17 572.83 403.21 569.5C408.88 566.32 410.67 564.37 410.67 561.33C410.67 559.53 410.39 558.89 409.02 557.42C408.08 556.49 405.81 554.93 403.97 553.95C397.26 550.48 395.56 548.72 395.56 545.44C395.56 542.26 397.5 540.41 404.91 536.4C409.12 534.15 410.67 532.24 410.67 529.4C410.67 526.57 408.74 524.46 403.45 521.63C401.09 520.31 398.35 518.5 397.36 517.52C395.8 516 395.56 515.47 395.56 513.51C395.56 510.38 397.26 508.52 403.12 505.34C405.71 503.93 408.5 502.02 409.26 501.09C409.35 500.98 409.82 500.43 410.67 499.43L410.67 490.53L410.67 481.63C413.22 478.69 414.64 477.06 414.92 476.74C420.4 470.48 423.8 465.54 426.68 459.82C431.6 450.14 433.53 441.48 434.05 427.35C434.57 412.48 435.85 404.81 440 392.19C445.72 374.59 452.61 360.94 474.67 323.19C489.26 298.3 494.22 289.35 500.17 277.23C509.95 257.28 515.52 240.89 518.21 223.93C519.25 217.37 519.34 198.16 518.4 189.45C515.94 166.66 509.99 145.49 500.64 126.03C473.77 70.04 422.1 30.58 360.61 19.08C356.83 18.4 350.79 17.47 347.15 17.03C340.82 16.35 319.24 15.76 313.86 16.15C289.63 18.01 268 23.34 247.03 32.58ZM464.47 108.18C486.57 135.61 498.61 168.13 499.79 203.39C500.5 224.71 495.64 243.58 481.99 272.34C476.84 283.14 473.39 289.7 460.26 313.41C438.77 352.34 430.84 369.11 424.94 387.98C420.78 401.33 419.32 409.7 418.7 423.93C418.18 435.76 417.43 441.09 415.21 447.74C413.18 453.95 411.19 457.32 407.04 461.68C406.81 461.91 405.68 463.1 403.64 465.25L325.66 465.25L247.69 465.25C245.65 463.1 244.52 461.91 244.29 461.68C240.18 457.37 237.77 453.27 235.93 447.3C233.85 440.65 233.15 435.42 232.63 423.93C232.01 409.45 230.55 401.29 226.16 387.25C220.35 368.82 212.74 352.78 191.3 313.9C177.89 289.55 174.49 283.14 169.34 272.34C155.74 243.73 150.83 224.71 151.54 203.39C153.8 135.71 197.3 77.96 263.8 54.44C288.54 45.64 315.51 42.36 342.9 44.76C390.89 48.91 435.47 72.19 464.47 108.18Z" />
  </defs>
  <g
     transform="matrix(-1.0317574,0,0,0.87733857,1011.3104,36.578802)"
     id="g24">
    <g
       transform="matrix(-1.1201013,0,0,1,1100.4412,0)"
       id="g22">
      <g
         id="g12">
        <use
           height="100%"
           width="100%"
           y="0"
           x="0"
           id="use6"
           fill-opacity="1"
           fill="#000000"
           opacity="1"
           xlink:href="#bQmIBc4Bv" />
        <g
           id="g10">
          <use
             height="100%"
             width="100%"
             y="0"
             x="0"
             id="use8"
             stroke-opacity="0"
             stroke-width="1"
             stroke="#000000"
             fill-opacity="0"
             opacity="1"
             xlink:href="#bQmIBc4Bv" />
        </g>
      </g>
      <g
         id="g20">
        <use
           style="fill-opacity:1;fill:#000000"
           height="100%"
           width="100%"
           y="0"
           x="0"
           id="use14"
           fill-opacity="1"
           fill="#000000"
           opacity="1"
           xlink:href="#ayQdYmlIH" />
        <g
           id="g18">
          <use
             height="100%"
             width="100%"
             y="0"
             x="0"
             id="use16"
             stroke-opacity="0"
             stroke-width="1"
             stroke="#000000"
             fill-opacity="0"
             opacity="1"
             xlink:href="#ayQdYmlIH" />
        </g>
      </g>
    </g>
  </g>
  <path
     style="fill:#00ffff;stroke-width:0.752941"
     d=""
     id="path61" />
</svg>
