<?xml version="1.0" encoding="UTF-8" standalone="no"?>
<!DOCTYPE svg PUBLIC "-//W3C//DTD SVG 1.1//EN" "http://www.w3.org/Graphics/SVG/1.1/DTD/svg11.dtd">
<svg version="1.1" xmlns="http://www.w3.org/2000/svg" xmlns:xlink="http://www.w3.org/1999/xlink" preserveAspectRatio="xMidYMid meet" viewBox="0 0 640 640" width="640" height="640"><defs><path d="M247.03 32.58C204.53 51.31 169.53 85.54 149.93 127.59C140.77 147.3 135.39 166.96 132.88 189.7C131.99 198.16 132.08 217.42 133.12 223.93C136.33 244.07 143.74 264.12 157.44 289.5C162.54 299.04 167.12 306.96 180.77 330.28C198.34 360.26 205.99 375.76 211.33 392.19C215.48 404.81 216.76 412.53 217.28 427.35C218.03 448.67 222.66 460.7 236.31 476.64C236.6 476.98 238.05 478.69 240.66 481.77L240.66 490.63L240.66 499.43C241.51 500.43 241.98 500.98 242.07 501.09C242.83 502.02 245.61 503.93 248.21 505.34C254.07 508.52 255.77 510.38 255.77 513.51C255.77 515.47 255.53 516 253.97 517.52C252.98 518.5 250.24 520.31 247.88 521.63C242.59 524.46 240.66 526.57 240.66 529.4C240.66 532.24 242.21 534.15 246.42 536.4C253.83 540.41 255.77 542.26 255.77 545.44C255.77 548.72 254.07 550.48 247.36 553.95C245.52 554.93 243.25 556.49 242.31 557.42C240.94 558.89 240.66 559.53 240.66 561.24C240.66 563.24 241.51 565.1 243.02 566.32C243.39 566.67 245.76 568.08 248.21 569.5C250.67 570.87 253.41 572.78 254.26 573.66C255.53 575.08 255.77 575.71 255.77 577.72C255.77 580.65 254.68 582.12 249.72 585.88C247.83 587.35 245.85 589.26 245.33 590.09C244.06 592.29 244.2 594.78 245.66 597.08C246.32 598.11 252.65 604.9 259.74 612.19C272.68 625.49 277.26 631.07 281.27 638.4C281.38 638.61 281.95 639.65 282.97 641.53L325.57 641.68L368.22 641.78C368.7 640.87 368.97 640.36 369.02 640.26C373.6 631.51 379.88 623.78 393.34 610.33C399.2 604.46 404.68 598.65 405.43 597.42C408.17 593.12 407.23 590.19 401.61 585.88C396.65 582.12 395.56 580.65 395.56 577.72C395.56 574.54 397.17 572.83 403.21 569.5C408.88 566.32 410.67 564.37 410.67 561.33C410.67 559.53 410.39 558.89 409.02 557.42C408.08 556.49 405.81 554.93 403.97 553.95C397.26 550.48 395.56 548.72 395.56 545.44C395.56 542.26 397.5 540.41 404.91 536.4C409.12 534.15 410.67 532.24 410.67 529.4C410.67 526.57 408.74 524.46 403.45 521.63C401.09 520.31 398.35 518.5 397.36 517.52C395.8 516 395.56 515.47 395.56 513.51C395.56 510.38 397.26 508.52 403.12 505.34C405.71 503.93 408.5 502.02 409.26 501.09C409.35 500.98 409.82 500.43 410.67 499.43L410.67 490.53L410.67 481.63C413.22 478.69 414.64 477.06 414.92 476.74C420.4 470.48 423.8 465.54 426.68 459.82C431.6 450.14 433.53 441.48 434.05 427.35C434.57 412.48 435.85 404.81 440 392.19C445.72 374.59 452.61 360.94 474.67 323.19C489.26 298.3 494.22 289.35 500.17 277.23C509.95 257.28 515.52 240.89 518.21 223.93C519.25 217.37 519.34 198.16 518.4 189.45C515.94 166.66 509.99 145.49 500.64 126.03C473.77 70.04 422.1 30.58 360.61 19.08C356.83 18.4 350.79 17.47 347.15 17.03C340.82 16.35 319.24 15.76 313.86 16.15C289.63 18.01 268 23.34 247.03 32.58ZM464.47 108.18C486.57 135.61 498.61 168.13 499.79 203.39C500.5 224.71 495.64 243.58 481.99 272.34C476.84 283.14 473.39 289.7 460.26 313.41C438.77 352.34 430.84 369.11 424.94 387.98C420.78 401.33 419.32 409.7 418.7 423.93C418.18 435.76 417.43 441.09 415.21 447.74C413.18 453.95 411.19 457.32 407.04 461.68C406.81 461.91 405.68 463.1 403.64 465.25L325.66 465.25L247.69 465.25C245.65 463.1 244.52 461.91 244.29 461.68C240.18 457.37 237.77 453.27 235.93 447.3C233.85 440.65 233.15 435.42 232.63 423.93C232.01 409.45 230.55 401.29 226.16 387.25C220.35 368.82 212.74 352.78 191.3 313.9C177.89 289.55 174.49 283.14 169.34 272.34C155.74 243.73 150.83 224.71 151.54 203.39C153.8 135.71 197.3 77.96 263.8 54.44C288.54 45.64 315.51 42.36 342.9 44.76C390.89 48.91 435.47 72.19 464.47 108.18Z" id="a2vjEAIPyE"></path><path d="M444.71 236.82C456.34 236.82 466.11 228.01 466.11 217.53C466.11 207.04 456.34 198.23 444.71 198.23C434.47 198.23 426.09 204.52 423.77 213.33C416.32 213.33 379.09 213.33 312.08 213.33L312.08 185.23C350.05 185.23 371.15 185.23 375.37 185.23C376.77 185.23 378.16 184.81 378.63 183.97C380.3 182.26 388.68 173.73 403.76 158.38C415.76 158.38 422.43 158.38 423.77 158.38C426.09 167.19 434.47 173.48 444.71 173.48C456.34 173.48 466.11 164.67 466.11 154.18C466.11 143.7 456.34 134.89 444.71 134.89C434.47 134.89 426.09 141.18 423.77 149.99C421.58 149.99 404.08 149.99 401.9 149.99C400.5 149.99 399.1 150.41 398.64 151.25C396.93 152.95 388.4 161.48 373.04 176.84L312.08 176.84L312.08 150.41C340.28 150.41 355.95 150.41 359.08 150.41C360.48 150.41 361.41 149.99 362.34 149.15C364.43 147.26 381.19 132.16 383.28 130.27C387 132.37 391.19 134.05 395.85 134.05C407.48 134.05 417.25 125.24 417.25 114.75C417.25 104.27 407.48 95.46 395.85 95.46C384.21 95.46 374.44 104.27 374.44 114.75C374.44 118.11 375.37 121.46 377.23 123.98C375.9 125.18 369.23 131.2 357.22 142.02L312.08 142.02C312.08 130.94 312.08 124.79 312.08 123.56C312.08 101.75 292.07 83.71 267.87 83.71C246.93 83.71 229.25 97.13 225.06 114.75C210.63 117.69 199 126.92 193.88 139.92C189.23 151.67 190.62 164.67 198.07 174.74C160.84 189 158.51 236.82 194.35 254.02C185.04 275.42 198.54 301.01 224.6 306.88C220.87 329.95 240.88 351.76 267.87 351.76C292.07 351.76 312.08 334.14 312.08 311.91C312.08 310.35 312.08 302.52 312.08 288.42L357.22 288.42C369.23 299.24 375.9 305.26 377.23 306.46C375.37 309.4 374.44 312.33 374.44 315.69C374.44 326.17 384.21 334.98 395.85 334.98C407.48 334.98 417.25 326.17 417.25 315.69C417.25 305.2 407.48 296.39 395.85 296.39C391.19 296.39 387 297.65 383.28 300.17C381.19 298.28 364.43 283.18 362.34 281.29C361.41 280.45 360.48 280.03 359.08 280.03C355.95 280.03 340.28 280.03 312.08 280.03L312.08 253.18L373.04 253.18C388.12 268.54 396.5 277.07 398.17 278.77C399.1 279.61 400.5 280.03 401.43 280.03C403.62 280.03 421.11 280.03 423.3 280.03C425.63 288.84 434.01 295.13 444.24 295.13C455.88 295.13 465.65 286.32 465.65 275.84C465.65 265.35 455.88 256.54 444.24 256.54C434.01 256.54 425.63 262.83 423.3 271.64C421.97 271.64 415.3 271.64 403.29 271.64C388.21 256.29 379.84 247.76 378.16 246.05C377.23 245.21 375.84 244.79 374.9 244.79C370.72 244.79 349.78 244.79 312.08 244.79L312.08 221.72L423.77 221.72C430.9 231.79 437.88 236.82 444.71 236.82ZM456.81 217.53C456.81 223.4 451.22 228.43 444.71 228.43C438.19 228.43 432.61 223.4 432.61 217.53C432.61 211.65 438.19 206.62 444.71 206.62C451.22 206.62 456.81 211.65 456.81 217.53ZM456.81 154.18C456.81 160.06 451.22 165.09 444.71 165.09C438.19 165.09 432.61 160.06 432.61 154.18C432.61 147.89 438.19 143.28 444.71 143.28C451.22 143.28 456.81 148.31 456.81 154.18ZM407.95 114.33C407.95 120.21 402.36 125.24 395.85 125.24C389.33 125.24 383.75 120.21 383.75 114.33C383.75 108.46 389.33 103.43 395.85 103.43C402.36 103.43 407.95 108.46 407.95 114.33ZM395.85 327.01C389.33 327.01 383.75 321.98 383.75 316.11C383.75 310.23 389.33 305.2 395.85 305.2C402.36 305.2 407.95 309.81 407.95 316.11C407.95 321.98 402.36 327.01 395.85 327.01ZM456.81 276.26C456.81 282.13 451.22 287.16 444.71 287.16C438.19 287.16 432.61 282.13 432.61 276.26C432.61 270.38 438.19 265.35 444.71 265.35C451.22 265.35 456.81 270.38 456.81 276.26ZM302.77 311.91C302.77 329.11 286.95 343.37 267.87 343.37C257.17 343.37 247.4 339.18 240.42 331.21C222.73 310.65 239.02 280.45 267.87 280.45C270.67 280.45 272.53 278.77 272.53 276.26C272.53 273.74 270.67 272.06 267.87 272.06C248.79 272.06 232.51 283.39 226.46 298.49C205.98 293.87 195.28 273.74 202.72 256.96C220.41 261.99 239.49 257.8 252.05 246.05C253.91 244.37 253.91 241.86 252.05 240.18C250.19 238.5 247.4 238.5 245.54 240.18C219.94 263.25 175.73 245.63 178.06 212.49C180.39 181.45 221.8 168.03 245.54 189.42C247.4 191.1 250.19 191.1 252.05 189.42C253.91 187.74 253.91 185.23 252.05 183.55C239.95 172.64 223.2 168.87 207.38 171.8C192.95 154.6 202.26 129.85 224.13 123.56C224.6 145.38 244.14 162.57 268.34 162.57C271.13 162.57 272.99 160.9 272.99 158.38C272.99 155.86 271.13 154.18 268.34 154.18C249.26 154.18 233.44 140.34 233.44 122.72C233.44 105.1 249.26 91.26 268.34 91.26C287.42 91.26 303.24 105.52 303.24 122.72C303.24 135.34 303.24 198.4 303.24 311.91C302.99 311.91 302.84 311.91 302.77 311.91Z" id="b2i8Oy3RXH"></path></defs><g><g><g><use xlink:href="#a2vjEAIPyE" opacity="1" fill="#000000" fill-opacity="1"></use><g><use xlink:href="#a2vjEAIPyE" opacity="1" fill-opacity="0" stroke="#000000" stroke-width="1" stroke-opacity="0"></use></g></g><g><use xlink:href="#b2i8Oy3RXH" opacity="1" fill="#000000" fill-opacity="1"></use><g><use xlink:href="#b2i8Oy3RXH" opacity="1" fill-opacity="0" stroke="#000000" stroke-width="1" stroke-opacity="0"></use></g></g></g></g></svg>